<svg width="600" height="600" viewBox="0 0 600 600" xmlns="http://www.w3.org/2000/svg" xmlns:xlink="http://www.w3.org/1999/xlink"><title>logo</title><desc>Created with Sketch.</desc><defs><path id="a" d="M-10-10h620v620H-10z"/></defs><g fill="none" fill-rule="evenodd"><g><use fill="#222" xlink:href="#a"/><use xlink:href="#a"/><use xlink:href="#a"/></g><path d="M498.76 572.54c40.737 0 73.76-33.027 73.76-73.77 0-40.742-33.023-73.77-73.76-73.77-40.736 0-73.76 33.028-73.76 73.77 0 40.743 33.024 73.77 73.76 73.77zm-14.306-59.507c.103 4.133 2.162 11.985 15.65 11.985 7.31 0 15.442-1.756 15.442-9.61 0-5.785-5.56-7.335-13.384-9.197l-7.928-1.86c-11.942-2.79-23.473-5.475-23.473-21.8 0-8.266 4.428-22.835 28.416-22.835 22.65 0 28.725 14.88 28.828 23.97h-14.826c-.412-3.305-1.647-11.157-15.134-11.157-5.87 0-12.87 2.17-12.87 8.885 0 5.786 4.736 7.026 7.825 7.75l18.016 4.442c10.09 2.48 19.356 6.613 19.356 19.942 0 22.318-22.65 24.278-29.137 24.278-26.974 0-31.607-15.602-31.607-24.797h14.826v.005zM323.87 573.866c40.797 0 73.87-33.324 73.87-74.433 0-41.108-33.073-74.433-73.87-74.433-40.797 0-73.87 33.325-73.87 74.433 0 41.11 33.073 74.433 73.87 74.433zm22.308-59.63c0 15.843-8.172 23.557-23.07 23.557-24.723 0-24.723-15.845-24.723-30.125h14.483c0 11.78.828 17.512 9.104 17.512 8.07 0 8.69-5.212 8.69-10.945v-53.16h15.516v53.16z" fill="#F7DF1E"/><path fill="#fff" d="M-10 25h620v4H-10z"/></g></svg>